<svg width="245" height="190" viewBox="0 0 245 190" fill="none" xmlns="http://www.w3.org/2000/svg">
<path fill-rule="evenodd" clip-rule="evenodd" d="M0 190L101.792 144.156H35.2356L0 190Z" fill="url(#paint0_linear_447_1493)"/>
<path fill-rule="evenodd" clip-rule="evenodd" d="M0 7.99999C0 3.58172 3.58172 0 8 0H236.692C241.11 0 244.692 3.58172 244.692 8V79.4638L100.357 144.665H7.99999C3.58171 144.665 0 141.083 0 136.665V7.99999ZM50.9792 21.3941V44.8328V44.9822H28.3842V61.0971H50.9792V84.5576H66.2634V61.0993H89.0678V45.0477H66.4728V21.3941H50.9792Z" fill="url(#paint1_linear_447_1493)"/>
<path d="M183.029 0L28.3838 177.775L78.3009 154.853L175.688 46.3539L207.009 119.196H156.602L100.813 144.665H244.691L183.029 0Z" fill="url(#paint2_linear_447_1493)"/>
<path d="M156.137 166.801H144.122L146.799 162.216H153.494L149.09 154.624L137.673 174.172H132L145.742 150.333C146.189 149.575 146.764 148.952 147.469 148.463C148.08 148.023 148.62 147.79 149.09 147.766C149.607 147.717 150.182 147.9 150.816 148.316C151.545 148.805 152.155 149.478 152.649 150.333L166.109 174.172H160.4L156.137 166.801Z" fill="#013478"/>
<path d="M181.115 159.108C182.295 159.108 183.29 159.218 184.101 159.438C184.911 159.64 185.554 159.97 186.03 160.428C186.523 160.868 186.876 161.446 187.087 162.161C187.298 162.858 187.404 163.702 187.404 164.692V168.653C187.404 169.643 187.298 170.496 187.087 171.211C186.876 171.908 186.523 172.485 186.03 172.944C185.554 173.384 184.911 173.705 184.101 173.907C183.29 174.108 182.295 174.209 181.115 174.209H171.204V179.683C171.204 180.086 171.011 180.288 170.623 180.288H168.033C167.628 180.288 167.425 180.086 167.425 179.683V164.692C167.425 163.702 167.531 162.858 167.743 162.161C167.954 161.446 168.298 160.868 168.773 160.428C169.267 159.97 169.91 159.64 170.702 159.438C171.513 159.218 172.517 159.108 173.715 159.108H181.115ZM171.204 170.908H180.745C181.326 170.908 181.802 170.862 182.172 170.771C182.542 170.679 182.832 170.514 183.044 170.276C183.273 170.037 183.431 169.726 183.519 169.34C183.607 168.955 183.651 168.469 183.651 167.883V165.434C183.651 164.866 183.607 164.389 183.519 164.004C183.431 163.601 183.273 163.289 183.044 163.069C182.832 162.831 182.542 162.665 182.172 162.574C181.802 162.464 181.326 162.409 180.745 162.409H174.085C173.521 162.409 173.054 162.464 172.684 162.574C172.314 162.665 172.015 162.831 171.786 163.069C171.574 163.289 171.425 163.601 171.337 164.004C171.249 164.389 171.204 164.866 171.204 165.434V170.908Z" fill="#013478"/>
<path d="M191.908 159.108V155.477C191.908 155.074 192.102 154.872 192.49 154.872H195.106C195.494 154.872 195.687 155.074 195.687 155.477V159.108H200.312C200.629 159.108 200.788 159.273 200.788 159.603V161.859C200.788 162.189 200.629 162.354 200.312 162.354H195.687V168.735C195.687 169.505 195.837 170.074 196.137 170.441C196.436 170.789 197.026 170.963 197.907 170.963H200.471C200.788 170.963 200.946 171.128 200.946 171.458V173.714C200.946 174.044 200.788 174.209 200.471 174.209H197.273C196.216 174.209 195.344 174.108 194.657 173.907C193.97 173.705 193.415 173.384 192.992 172.944C192.587 172.504 192.305 171.935 192.146 171.238C191.988 170.542 191.908 169.707 191.908 168.735V162.354H189.398C189.081 162.354 188.922 162.189 188.922 161.859V159.603C188.922 159.273 189.081 159.108 189.398 159.108H191.908Z" fill="#013478"/>
<path d="M206.211 159.108C206.599 159.108 206.793 159.319 206.793 159.741V167.69C206.793 168.277 206.828 168.763 206.898 169.148C206.969 169.533 207.101 169.845 207.295 170.083C207.489 170.303 207.762 170.468 208.114 170.578C208.466 170.67 208.933 170.716 209.515 170.716H216.306C216.888 170.716 217.363 170.67 217.733 170.578C218.103 170.468 218.394 170.303 218.606 170.083C218.835 169.845 218.993 169.533 219.081 169.148C219.169 168.763 219.213 168.277 219.213 167.69V159.741C219.213 159.319 219.407 159.108 219.795 159.108H222.385C222.772 159.108 222.966 159.319 222.966 159.741V168.653C222.966 169.643 222.86 170.496 222.649 171.211C222.437 171.908 222.085 172.485 221.592 172.944C221.116 173.384 220.473 173.705 219.663 173.907C218.852 174.108 217.857 174.209 216.676 174.209H209.303C208.105 174.209 207.101 174.108 206.291 173.907C205.498 173.705 204.855 173.384 204.362 172.944C203.886 172.485 203.542 171.908 203.331 171.211C203.119 170.496 203.014 169.643 203.014 168.653V159.741C203.014 159.319 203.216 159.108 203.622 159.108H206.211Z" fill="#013478"/>
<path d="M242.97 159.108C243.287 159.108 243.446 159.273 243.446 159.603V161.804C243.446 162.134 243.287 162.299 242.97 162.299H231.052C230.506 162.299 230.127 162.409 229.916 162.629C229.704 162.831 229.598 163.133 229.598 163.537V163.949C229.598 164.316 229.704 164.609 229.916 164.829C230.127 165.031 230.506 165.132 231.052 165.132H239.958C241.438 165.132 242.495 165.453 243.129 166.095C243.763 166.736 244.08 167.644 244.08 168.818V170.358C244.08 170.963 244.01 171.504 243.869 171.981C243.728 172.458 243.49 172.861 243.155 173.191C242.838 173.521 242.415 173.778 241.887 173.962C241.358 174.127 240.706 174.209 239.931 174.209H226.401C226.084 174.209 225.925 174.044 225.925 173.714V171.513C225.925 171.183 226.084 171.018 226.401 171.018H238.927C239.473 171.018 239.852 170.917 240.063 170.716C240.292 170.514 240.407 170.175 240.407 169.698V168.955C240.407 168.589 240.292 168.304 240.063 168.103C239.852 167.901 239.473 167.8 238.927 167.8H230.048C228.568 167.8 227.511 167.488 226.876 166.865C226.242 166.223 225.925 165.297 225.925 164.087V162.876C225.925 162.308 225.996 161.794 226.137 161.336C226.277 160.859 226.506 160.456 226.824 160.126C227.158 159.796 227.59 159.548 228.119 159.383C228.647 159.2 229.299 159.108 230.074 159.108H242.97Z" fill="#013478"/>
<defs>
<linearGradient id="paint0_linear_447_1493" x1="244.225" y1="126.699" x2="-1.55622" y2="229.72" gradientUnits="userSpaceOnUse">
<stop stop-color="#2F338F"/>
<stop offset="0.970464" stop-color="#2B7DB2"/>
</linearGradient>
<linearGradient id="paint1_linear_447_1493" x1="226.095" y1="80.4825" x2="-28.8743" y2="79.072" gradientUnits="userSpaceOnUse">
<stop stop-color="#2F338F"/>
<stop offset="0.970464" stop-color="#2B7DB2"/>
</linearGradient>
<linearGradient id="paint2_linear_447_1493" x1="29.3626" y1="78.445" x2="244.691" y2="78.445" gradientUnits="userSpaceOnUse">
<stop stop-color="#A7A9AC"/>
<stop offset="1" stop-color="#838487"/>
</linearGradient>
</defs>
</svg>
