<svg width="357" height="236" viewBox="0 0 357 236" fill="none" xmlns="http://www.w3.org/2000/svg">
<path d="M266.467 154.824C266.178 153.953 266.243 153.003 266.649 152.18C267.055 151.357 267.769 150.727 268.637 150.427C268.814 150.368 268.997 150.324 269.182 150.296L271.05 142.629L275.922 142.644L273.133 153.433C273.201 154.206 273.009 154.979 272.587 155.629C272.164 156.28 271.537 156.771 270.804 157.023C270.375 157.166 269.921 157.223 269.47 157.189C269.019 157.156 268.579 157.034 268.176 156.829C267.773 156.624 267.414 156.342 267.121 155.998C266.827 155.653 266.605 155.254 266.467 154.824Z" fill="#9F616A"/>
<path d="M274.693 149.862L267.231 149.338L270.845 127.503L268.546 103.459L276.088 100.323L281.118 127.024L281.104 127.073L274.693 149.862Z" fill="#757575"/>
<path d="M217.001 147.303C216.984 146.388 217.332 145.503 217.967 144.844C218.603 144.185 219.474 143.805 220.39 143.788C220.577 143.787 220.764 143.801 220.949 143.831L225.035 137.109L229.67 138.63L223.767 148.042C223.588 148.869 223.11 149.6 222.424 150.094C221.737 150.589 220.892 150.812 220.052 150.72C219.211 150.628 218.434 150.228 217.87 149.597C217.307 148.966 216.997 148.149 217.001 147.303Z" fill="#9F616A"/>
<path d="M240.01 231.361H236.041L234.153 215.838L240.011 215.839L240.01 231.361Z" fill="#9F616A"/>
<path d="M241.022 235.262L228.225 235.262V235.098C228.22 233.761 228.744 232.477 229.684 231.526C230.142 231.057 230.69 230.684 231.295 230.43C231.9 230.176 232.55 230.046 233.206 230.047L241.023 230.047L241.022 235.262Z" fill="#2F2E41"/>
<path d="M267.699 231.361H263.73L261.842 215.838L267.7 215.839L267.699 231.361Z" fill="#9F616A"/>
<path d="M268.712 235.262L255.914 235.262V235.098C255.909 233.761 256.433 232.477 257.373 231.526C257.832 231.057 258.379 230.684 258.984 230.43C259.589 230.176 260.239 230.046 260.895 230.047L268.712 230.047L268.712 235.262Z" fill="#2F2E41"/>
<path d="M263.925 85.5916C269.133 85.5916 273.354 81.311 273.354 76.0305C273.354 70.7501 269.133 66.4695 263.925 66.4695C258.717 66.4695 254.496 70.7501 254.496 76.0305C254.496 81.311 258.717 85.5916 263.925 85.5916Z" fill="#9F616A"/>
<path d="M260.74 75.5063C259.322 76.0528 257.755 76.0705 256.325 75.5564C254.896 75.0422 253.699 74.0305 252.954 72.7063C252.278 71.3329 252.107 69.7653 252.472 68.2787C252.837 66.7922 253.715 65.4818 254.95 64.5777C257.46 62.8748 261.208 63.4384 263.641 65.4135C265.281 64.6577 267.122 64.4505 268.89 64.8224C270.657 65.1944 272.258 66.1258 273.455 67.4787C275.804 70.2337 276.061 74.6067 274.349 77.8182C273.6 79.4946 273.268 81.3273 273.382 83.1598C273.495 84.9923 274.05 86.7701 274.999 88.3416C274.263 88.3112 272.642 88.1728 270.614 87.9954C270.027 87.9441 269.773 86.196 269.129 86.1397C268.562 86.0902 267.609 87.7328 267.015 87.6818C262.61 87.3044 257.679 86.9211 255.444 86.9961C257.012 83.0782 258.78 79.2433 260.74 75.5063Z" fill="#757575"/>
<path d="M271.156 143.387C271.156 143.387 274.221 146.59 272.349 163.133L271.057 198.26L268.769 229.363L261.41 228.867L254.946 157.279L245.897 183.475L241.024 226.783L233.963 226.287L232.758 183.22L235.853 149.936L271.156 143.387Z" fill="#E6E6E6"/>
<path d="M240.826 151.94C237.061 151.94 235.544 151.481 235.433 151.445L235.259 151.39L235.289 151.207C235.314 151.056 237.844 136.102 241.315 128.251L243.755 96.4113C243.82 95.4711 244.201 94.5804 244.836 93.884C245.471 93.1877 246.323 92.7266 247.253 92.5758L253.461 91.5876L257.259 88.1969L266.356 88.707L267.159 92.6091C268.247 92.9175 275.427 95.1488 276.138 100.492L276.146 100.559L276.116 100.618L262.961 126.277C264.073 127.39 272.858 136.54 273.454 148.238L273.468 148.519L273.198 148.457C273.172 148.451 270.361 147.91 255.578 150.444C248.741 151.615 243.989 151.94 240.826 151.94Z" fill="#B2B2B2"/>
<path d="M226.243 147.149L220.881 142.962L232.848 118.684L243.979 94.8901C244.131 94.5583 244.383 94.2819 244.699 94.0987C245.015 93.9155 245.379 93.8343 245.743 93.8665C246.107 93.8987 246.452 94.0425 246.73 94.2783C247.009 94.5141 247.208 94.8304 247.3 95.1837L250.055 105.318L241.44 128.046L226.243 147.149Z" fill="#757575"/>
<path d="M341.339 235.089L341.658 234.5C337.386 232.19 332.07 229.315 329.293 224.597C326.556 219.946 326.495 213.631 329.133 208.115C331.378 203.421 335.503 199.215 341.06 195.953C342.157 195.309 343.307 194.699 344.42 194.109C347.11 192.684 349.892 191.21 352.185 189.118C355.344 186.237 357.734 181.403 355.953 177.097C355.367 175.723 354.408 174.54 353.183 173.684C351.959 172.827 350.519 172.331 349.027 172.252L348.99 172.92C350.356 172.993 351.676 173.447 352.797 174.231C353.919 175.016 354.799 176.099 355.336 177.358C356.991 181.359 354.72 185.9 351.734 188.623C349.503 190.657 346.76 192.111 344.107 193.518C342.987 194.111 341.83 194.724 340.721 195.375C335.048 198.705 330.832 203.011 328.529 207.826C325.796 213.54 325.867 220.097 328.716 224.937C331.587 229.816 336.994 232.74 341.339 235.089Z" fill="#F1F1F1"/>
<path d="M344.782 175.782C348.019 175.782 350.643 174.507 350.643 172.935C350.643 171.363 348.019 170.088 344.782 170.088C341.545 170.088 338.921 171.363 338.921 172.935C338.921 174.507 341.545 175.782 344.782 175.782Z" fill="#F1F1F1"/>
<path d="M340.093 194.538C343.33 194.538 345.954 193.263 345.954 191.691C345.954 190.119 343.33 188.844 340.093 188.844C336.856 188.844 334.232 190.119 334.232 191.691C334.232 193.263 336.856 194.538 340.093 194.538Z" fill="#F1F1F1"/>
<path d="M350.811 197.552C354.048 197.552 356.672 196.278 356.672 194.706C356.672 193.133 354.048 191.859 350.811 191.859C347.574 191.859 344.949 193.133 344.949 194.706C344.949 196.278 347.574 197.552 350.811 197.552Z" fill="#F1F1F1"/>
<path d="M334.064 213.294C337.301 213.294 339.925 212.02 339.925 210.447C339.925 208.875 337.301 207.6 334.064 207.6C330.827 207.6 328.203 208.875 328.203 210.447C328.203 212.02 330.827 213.294 334.064 213.294Z" fill="#F1F1F1"/>
<path d="M322.342 213.294C325.579 213.294 328.203 212.02 328.203 210.447C328.203 208.875 325.579 207.6 322.342 207.6C319.104 207.6 316.48 208.875 316.48 210.447C316.48 212.02 319.104 213.294 322.342 213.294Z" fill="#F1F1F1"/>
<path d="M356.123 236H165.006C164.87 236 164.74 235.946 164.644 235.85C164.548 235.754 164.494 235.624 164.494 235.488C164.494 235.353 164.548 235.222 164.644 235.126C164.74 235.03 164.87 234.977 165.006 234.977H356.371C356.506 234.977 356.636 235.03 356.732 235.126C356.828 235.222 356.882 235.353 356.882 235.488C356.882 235.771 356.405 236 356.123 236Z" fill="#CBCBCB"/>
<path d="M116.937 57.1899H31.9994C31.3211 57.1891 30.6709 56.9194 30.1912 56.4397C29.7116 55.9601 29.4418 55.3099 29.441 54.6316V25.978C29.4418 25.2998 29.7116 24.6495 30.1912 24.1699C30.6709 23.6903 31.3211 23.4205 31.9994 23.4197H116.937C117.615 23.4205 118.265 23.6903 118.745 24.1699C119.224 24.6495 119.494 25.2998 119.495 25.978V54.6316C119.494 55.3099 119.224 55.9601 118.745 56.4398C118.265 56.9194 117.615 57.1892 116.937 57.1899Z" fill="#757575"/>
<path d="M65.2579 31.095H42.7444V33.6533H65.2579V31.095Z" fill="white"/>
<path d="M94.9349 34.165C95.7827 34.165 96.4699 33.4777 96.4699 32.63C96.4699 31.7822 95.7827 31.095 94.9349 31.095C94.0872 31.095 93.3999 31.7822 93.3999 32.63C93.3999 33.4777 94.0872 34.165 94.9349 34.165Z" fill="white"/>
<path d="M100.052 34.165C100.899 34.165 101.587 33.4777 101.587 32.63C101.587 31.7822 100.899 31.095 100.052 31.095C99.2038 31.095 98.5166 31.7822 98.5166 32.63C98.5166 33.4777 99.2038 34.165 100.052 34.165Z" fill="white"/>
<path d="M105.168 34.165C106.016 34.165 106.703 33.4777 106.703 32.63C106.703 31.7822 106.016 31.095 105.168 31.095C104.321 31.095 103.633 31.7822 103.633 32.63C103.633 33.4777 104.321 34.165 105.168 34.165Z" fill="white"/>
<path d="M116.937 93.5187H31.9994C31.3211 93.5179 30.6709 93.2481 30.1912 92.7685C29.7116 92.2889 29.4418 91.6386 29.441 90.9603V62.3068C29.4418 61.6285 29.7116 60.9782 30.1912 60.4986C30.6709 60.019 31.3211 59.7492 31.9994 59.7484H116.937C117.615 59.7492 118.265 60.019 118.745 60.4986C119.224 60.9782 119.494 61.6285 119.495 62.3068V90.9603C119.494 91.6386 119.224 92.2889 118.745 92.7685C118.265 93.2481 117.615 93.5179 116.937 93.5187Z" fill="#757575"/>
<path d="M65.2579 67.4235H42.7444V69.9818H65.2579V67.4235Z" fill="white"/>
<path d="M94.9349 70.4935C95.7827 70.4935 96.4699 69.8062 96.4699 68.9585C96.4699 68.1107 95.7827 67.4235 94.9349 67.4235C94.0872 67.4235 93.3999 68.1107 93.3999 68.9585C93.3999 69.8062 94.0872 70.4935 94.9349 70.4935Z" fill="white"/>
<path d="M100.052 70.4935C100.899 70.4935 101.587 69.8062 101.587 68.9585C101.587 68.1107 100.899 67.4235 100.052 67.4235C99.2038 67.4235 98.5166 68.1107 98.5166 68.9585C98.5166 69.8062 99.2038 70.4935 100.052 70.4935Z" fill="white"/>
<path d="M105.168 70.4935C106.016 70.4935 106.703 69.8062 106.703 68.9585C106.703 68.1107 106.016 67.4235 105.168 67.4235C104.321 67.4235 103.633 68.1107 103.633 68.9585C103.633 69.8062 104.321 70.4935 105.168 70.4935Z" fill="white"/>
<path d="M116.937 129.847H31.9994C31.3211 129.846 30.6709 129.577 30.1912 129.097C29.7116 128.617 29.4418 127.967 29.441 127.289V98.6354C29.4418 97.9571 29.7116 97.3068 30.1912 96.8272C30.6709 96.3476 31.3211 96.0778 31.9994 96.077H116.937C117.615 96.0778 118.265 96.3476 118.745 96.8272C119.224 97.3068 119.494 97.9571 119.495 98.6354V127.289C119.494 127.967 119.224 128.617 118.745 129.097C118.265 129.577 117.615 129.847 116.937 129.847Z" fill="#757575"/>
<path d="M65.2579 103.752H42.7444V106.31H65.2579V103.752Z" fill="white"/>
<path d="M94.9349 106.822C95.7827 106.822 96.4699 106.135 96.4699 105.287C96.4699 104.439 95.7827 103.752 94.9349 103.752C94.0872 103.752 93.3999 104.439 93.3999 105.287C93.3999 106.135 94.0872 106.822 94.9349 106.822Z" fill="white"/>
<path d="M100.052 106.822C100.899 106.822 101.587 106.135 101.587 105.287C101.587 104.439 100.899 103.752 100.052 103.752C99.2038 103.752 98.5166 104.439 98.5166 105.287C98.5166 106.135 99.2038 106.822 100.052 106.822Z" fill="white"/>
<path d="M105.168 106.822C106.016 106.822 106.703 106.135 106.703 105.287C106.703 104.439 106.016 103.752 105.168 103.752C104.321 103.752 103.633 104.439 103.633 105.287C103.633 106.135 104.321 106.822 105.168 106.822Z" fill="white"/>
<path d="M85.9606 152.086H0V118.196H1.02334V151.062H85.9606V152.086Z" fill="#CCCCCC"/>
<path d="M53.7255 0H139.686V33.89H138.663V1.02334H53.7255V0Z" fill="#CCCCCC"/>
</svg>
